<svg width="756" height="324" viewBox="0 0 756 324" fill="none" xmlns="http://www.w3.org/2000/svg">
<rect x="0.5" y="0.5" width="755" height="322.65" fill="white" stroke="#EBEBEB"/>
<path fill-rule="evenodd" clip-rule="evenodd" d="M268.501 161.708C268.501 152.566 276.105 145.278 290.42 145.278C304.74 145.278 312.423 152.566 312.423 161.708C312.423 170.98 305.18 178.371 290.504 178.371C275.823 178.371 268.501 170.98 268.501 161.708ZM282.833 161.515C282.737 167.375 285.034 173.27 290.262 173.365C295.648 173.468 297.963 167.509 298.059 161.789C298.165 155.723 295.578 150.334 290.68 150.244C285.782 150.159 282.939 155.449 282.833 161.515ZM176.353 150.776L190.735 177.435L207.382 177.448L221.517 150.776H228.602V145.945H207.29V150.776H213.446L203.153 170.192L192.724 150.776H200.205L200.2 145.945H169.282L169.277 150.776H176.353ZM359.562 150.763V145.945L388.074 145.949V150.767H380.971V172.527H387.555C393.654 172.527 397.654 168.414 397.654 162.837H402.358V177.408L359.562 177.412V172.531H366.749L366.74 150.763H359.562ZM450.988 150.776L465.365 177.435L482.016 177.448L496.151 150.776H503.236V145.945H481.924V150.776H488.081L477.788 170.192L467.358 150.776H474.835V145.945H443.916L443.912 150.776H450.988ZM543.15 161.708C543.15 152.566 550.754 145.278 565.069 145.278C579.389 145.278 587.073 152.566 587.073 161.708C587.073 170.98 579.829 178.371 565.153 178.371C550.473 178.371 543.15 170.98 543.15 161.708ZM557.483 161.515C557.386 167.375 559.683 173.27 564.911 173.365C570.293 173.468 572.608 167.509 572.705 161.789C572.81 155.723 570.227 150.334 565.329 150.244C560.431 150.159 557.588 155.449 557.483 161.515Z" fill="#141414"/>
</svg>
